<svg viewBox="0 0 73.793 31.472" xmlns="http://www.w3.org/2000/svg"><path d="M4.264 3.214v11.007c.615 0 .992-.126 1.135-.377.141-.252.212-.936.212-2.052v-6.5c0-.759-.023-1.244-.07-1.458a.692.692 0 00-.325-.47c-.169-.1-.486-.15-.952-.15M0 .351h3.19c2.06 0 3.452.097 4.178.29.726.192 1.278.51 1.656.95.378.441.615.932.71 1.473.094.541.141 1.604.141 3.188v5.86c0 1.503-.069 2.507-.208 3.013-.138.507-.38.903-.724 1.189-.344.286-.77.486-1.276.6-.506.113-1.27.17-2.29.17H0zm15.481 16.734h-4.264V.352h4.264zm6.574-5.974a202.398 202.398 0 01-.65-7.028c-.434 3.204-.707 5.547-.818 7.028zM24.315.352l2.438 16.733h-4.358l-.229-3.008h-1.525l-.256 3.008h-4.408L18.152.352zm16.072 0v16.733H36.66l-.005-11.297-1.484 11.297h-2.643L30.962 6.047l-.004 11.038H27.23V.352h5.517c.164 1.006.333 2.192.506 3.557l.606 4.256.98-7.813zm6.94 4.299c0-.779-.042-1.276-.126-1.493-.085-.218-.259-.326-.522-.326a.578.578 0 00-.512.264c-.118.175-.177.694-.177 1.555v7.813c0 .972.039 1.572.116 1.799.078.227.259.341.542.341.29 0 .477-.13.557-.393.081-.262.122-.885.122-1.87zm4.264 5.498c0 1.682-.039 2.872-.116 3.571a4.05 4.05 0 01-.73 1.918c-.408.578-.96 1.023-1.656 1.333-.695.31-1.505.465-2.43.465-.879 0-1.667-.147-2.366-.44a3.898 3.898 0 01-1.686-1.317 4.003 4.003 0 01-.76-1.912c-.08-.69-.121-1.895-.121-3.618V7.286c0-1.68.038-2.871.116-3.57a4.05 4.05 0 01.73-1.918c.408-.579.96-1.023 1.656-1.333.695-.31 1.505-.465 2.43-.465.878 0 1.667.146 2.366.44.698.292 1.26.732 1.686 1.317a4.01 4.01 0 01.76 1.912c.08.69.121 1.895.121 3.618zM62.457.352v16.733h-3.738l-2.218-7.607v7.607h-3.565V.352h3.565l2.39 7.534V.352zm5.72 2.862v11.007c.614 0 .992-.126 1.135-.377.141-.252.212-.936.212-2.052v-6.5c0-.759-.024-1.244-.071-1.458a.691.691 0 00-.324-.47c-.169-.1-.486-.15-.952-.15M63.913.351h3.19c2.06 0 3.452.097 4.178.29.726.192 1.278.51 1.656.95.378.441.614.932.71 1.473.094.541.141 1.604.141 3.188v5.86c0 1.503-.07 2.507-.208 3.013-.138.507-.38.903-.723 1.189-.345.286-.77.486-1.277.6-.506.113-1.27.17-2.289.17h-5.378z" fill="#695e2d"/><path d="M4.685 23.498c0-.55-.033-.897-.098-1.04-.065-.143-.205-.215-.418-.215-.214 0-.357.072-.428.215-.071.143-.107.49-.107 1.04v4.85c0 .507.036.837.107.991.071.154.21.231.419.231.213 0 .354-.07.423-.21.068-.14.102-.443.102-.907zm3.598.81v2.63c0 .967-.054 1.675-.16 2.126-.107.45-.336.872-.686 1.263-.35.391-.8.68-1.35.866-.549.186-1.18.28-1.892.28-.796 0-1.47-.08-2.022-.24-.552-.158-.98-.399-1.286-.72-.306-.32-.524-.71-.655-1.166s-.196-1.14-.196-2.052v-2.753c0-.998.119-1.778.356-2.34.238-.56.665-1.012 1.283-1.351.617-.34 1.407-.51 2.369-.51.807 0 1.5.109 2.08.327.578.22 1.025.504 1.34.854.314.351.53.713.645 1.086.116.372.174.939.174 1.7m10.243-3.773l-.062.99c.26-.395.58-.69.957-.888.377-.198.812-.296 1.305-.296.617 0 1.122.132 1.514.397.392.264.644.597.757 1 .112.401.169 1.072.169 2.011v7.53h-3.598v-7.44c0-.74-.027-1.19-.08-1.353-.054-.162-.202-.243-.445-.243-.256 0-.416.093-.481.28-.066.186-.098.684-.098 1.493v7.263h-3.598V20.536zM33.507 31.28h-3.705V18.173h3.705zm10.4 0h-3.705V20.537h3.705zm0-11.399h-3.705v-1.708h3.705zm10.35.654l-.062.99c.26-.395.58-.69.957-.888.377-.198.812-.296 1.304-.296.618 0 1.123.132 1.514.397.392.264.645.597.757 1 .113.401.17 1.072.17 2.011v7.53h-3.598v-7.44c0-.74-.027-1.19-.08-1.353-.054-.162-.202-.243-.445-.243-.256 0-.416.093-.481.28-.066.186-.098.684-.098 1.493v7.263h-3.598V20.536zm15.81 3.815v-.785c0-.556-.033-.915-.098-1.077s-.2-.243-.4-.243c-.25 0-.405.07-.464.206-.06.138-.089.51-.089 1.114v.785zm3.607 1.749h-4.658v2.323c0 .486.038.8.116.94.077.14.225.21.445.21.273 0 .455-.093.548-.28.092-.186.138-.546.138-1.08v-1.417h3.41v.793c0 .664-.045 1.174-.137 1.53-.093.357-.308.737-.646 1.142a3.122 3.122 0 01-1.287.91c-.52.203-1.17.304-1.955.304-.76 0-1.43-.1-2.012-.3-.582-.199-1.035-.473-1.358-.82a2.887 2.887 0 01-.672-1.15c-.125-.419-.188-1.027-.188-1.826v-3.133c0-.94.14-1.68.419-2.223.279-.542.736-.957 1.371-1.246.636-.289 1.366-.434 2.191-.434 1.01 0 1.842.175 2.498.523.656.348 1.116.81 1.38 1.384.265.575.397 1.383.397 2.425z"/></svg>