<svg xmlns="http://www.w3.org/2000/svg" width="133.001" height="50.869" viewBox="0 0 133.001 50.869"><path d="M72.473,47.339h-.033V32.2l-2.995,1.185-9.051,3.587L57.4,38.157V73.6l2.995-1.185.132-.066,8.886-3.489,2.995-1.185,3.127-1.218v-17.9ZM60.395,40.132l9.018-3.554v11.98l-9.018,3.554ZM72.441,64.453l-2.995,1.185-9.018,3.554V55.337l9.018-3.554L72.441,50.6Z" transform="translate(-38.509 -22.734)" fill="#fff"/><path d="M21.853,13.954l8.919-3.522,2.567-1.02.428-.165v-2.9l-.428-.165-2.567-1.02L21.754,1.613h-.033L18.76.428,17.641,0l-.823.329L13.823,1.514l-.263.1L3.028,5.759l-.987.395L0,6.944V36.235L2.995,37.42V9.775l10.663,4.213.132.066,2.995,1.185.954.362.987-.395,2.995-1.185Zm-4.081-1.613-.954-.362-2.995-1.185L6.154,7.767l7.668-3.028,2.995-1.185.823-.329,1.119.428,2.995,1.185,7.5,2.962-7.5,2.962L18.76,11.947Z" fill="#fff"/><path d="M16.785,45.905h-.066L13.79,44.786l-2.8-1.086v3.225l2.8,1.086v28.9L3.061,72.662V69.4L0,68.153V74.7l2.995,1.185,10.7,4.213.1.033,3.028,1.185V45.938Z" transform="translate(0 -30.449)" fill="#fff"/><g transform="translate(44.402 12.501)"><path d="M200.065,48.422,200,48.356c2.041-1.086,3.192-1.744,3.192-4.344a3.7,3.7,0,0,0-2.04-3.587,10.466,10.466,0,0,0-4.641-.724c-.922,0-2.5.066-3.324.066-1.909,0-3.094-.066-3.489-.066-.165,0-.2.066-.2.2v.658a.175.175,0,0,0,.2.2h.823c1.218,0,1.646.066,1.711,1.58.033.461.066,3.686.066,4.641v3.094c0,2.139-.066,5.628-.132,6.22-.1.856-.23,1.152-1.053,1.152h-1.251c-.2,0-.23.066-.23.2v.691c0,.1.066.165.362.165.494,0,2.04-.066,3.357-.066,1.119,0,2.139.066,3.949.066,2.4,0,3.916-.263,5.035-.954a5.119,5.119,0,0,0,2.04-3.949C204.31,50.824,202.6,49.277,200.065,48.422ZM194.6,46.085c0-2.172.033-4.476.066-5a.464.464,0,0,1,.362-.461,3.336,3.336,0,0,1,.856-.033,6.261,6.261,0,0,1,3.587.889,3.261,3.261,0,0,1,1.284,2.765,3.82,3.82,0,0,1-1.481,3.159,6.026,6.026,0,0,1-3.324.691,9.954,9.954,0,0,1-1.382-.066V46.085Zm0,7.932v-5.1h.823a9.976,9.976,0,0,1,3.456.428,4.036,4.036,0,0,1,2.6,3.982c0,3.028-2.008,4.048-4.18,4.048-1.876,0-2.534-.79-2.7-2.534Z" transform="translate(-174.492 -39.7)" fill="#fff"/><path d="M154.037,39.8c-.395,0-1.316.066-3.554.066-2.5,0-3.456-.066-3.752-.066-.165,0-.2.066-.2.2v.724c0,.1.066.132.2.132h1.152c1.02,0,1.251.329,1.284.889.066,1.119.066,5.792.066,6.22v1.843c0,1.909.3,9.544-.362,11.453a3.034,3.034,0,0,1-.56,1.02c-.494.494-1.02.329-1.185.1h0a.777.777,0,0,0-.3-.263,2.261,2.261,0,0,0-1.448-.559c-.856,0-1.481.461-1.481,1.251,0,1.152,1.316,1.514,1.777,1.514,2.008,0,3.818-1.711,4.9-3.587a8.047,8.047,0,0,0,.987-4.377c0-.592.1-3.192.1-6.516V48.62c0-3.192.066-6.549.066-6.977.033-.559.263-.757.987-.757h1.316c.165,0,.2-.066.2-.2V40.03C154.234,39.866,154.2,39.8,154.037,39.8Z" transform="translate(-143.9 -39.767)" fill="#fff"/><g transform="translate(33.306 7.503)"><path d="M327.847,70.857l-.329-.2c-.066-.033-.2.033-.23.132a3.488,3.488,0,0,1-3.127,1.777c-2.073,0-3.686-1.909-3.686-4.476a9.62,9.62,0,0,1,.066-1.251h6.418c.428,0,.724-.066.724-.428a4.217,4.217,0,0,0-.658-2.073A3.589,3.589,0,0,0,323.7,62.5a4.559,4.559,0,0,0-3.522,1.415l-.033.033-.033.033a1.43,1.43,0,0,0-.2.23,5.844,5.844,0,0,0-1.415,3.884,6.2,6.2,0,0,0,1.152,4.114,4.823,4.823,0,0,0,8.195-.987C327.978,70.956,327.913,70.89,327.847,70.857Zm-3.192-4.772h-4.015c.494-1.909,1.58-2.666,2.732-2.666,1.678,0,2.008,1.711,2.008,2.3C325.346,65.953,325.148,66.085,324.654,66.085Z" transform="translate(-294.343 -62.497)" fill="#fff"/><path d="M255.7,63.916a4.2,4.2,0,0,0-2.962-1.284H252.6a5.708,5.708,0,0,0-3.752,1.613l-.1-1.119c0-.395-.066-.527-.2-.527a1.568,1.568,0,0,0-.592.2l-2.5,1.251c-.132.066-.2.1-.2.2v.2c0,.066,0,.165.2.23l.592.329a1.408,1.408,0,0,1,.922,1.415V74.81c0,2.534,0,3.949-.066,4.509-.066.395-.1.658-.559.658H245.4c-.263,0-.3.1-.3.23v.461c0,.165.066.23.23.23.2,0,1.119-.066,2.633-.066,1.678,0,2.534.066,2.666.066.2,0,.23-.066.23-.23v-.428c0-.165-.033-.263-.23-.263h-1.152c-.395,0-.56-.132-.56-.856v-5.5a7.541,7.541,0,0,0,2.6.428c3.258,0,5.595-2.732,5.595-6.122A4.984,4.984,0,0,0,255.7,63.916Zm-3.653,9.347a4.389,4.389,0,0,1-2.6-.691,1.436,1.436,0,0,1-.559-1.382V66.714a3.335,3.335,0,0,1,1.349-2.534,3.015,3.015,0,0,1,1.415-.362c1.744,0,3.39,1.448,3.39,5.1C255.072,72.144,253.525,73.263,252.044,73.263Z" transform="translate(-245.1 -62.566)" fill="#fff"/><path d="M292.74,62.733a.56.56,0,0,0-.23-.033h-.1a1.35,1.35,0,0,0-.362.033h0a6.221,6.221,0,0,0-2.8,2.073l-.132-1.678c0-.165-.033-.3-.2-.3a1,1,0,0,0-.362.1l-2.567,1.316c-.165.066-.2.132-.2.23v.165c0,.1.066.132.2.2l.494.263c.724.395.922.658.922,1.975v2.435c0,1.349,0,2.271-.033,3.127,0,.329-.2.494-.559.494H285.8c-.23,0-.3.066-.3.23v.428c0,.2.066.263.165.263.165,0,1.251-.066,2.863-.066,1.415,0,2.6.066,2.765.066.1,0,.132-.066.132-.23V73.33c0-.165-.033-.23-.2-.23h-1.218c-.56,0-.724-.263-.724-1.053V66.584a2.486,2.486,0,0,1,.263-.823,1.841,1.841,0,0,1,1.547-1.086,1.647,1.647,0,0,1,.856.2,1.708,1.708,0,0,0,.757.2,1.265,1.265,0,0,0,1.086-1.284A1.155,1.155,0,0,0,292.74,62.733Z" transform="translate(-272.204 -62.633)" fill="#fff"/><path d="M360.735,67.306a4.714,4.714,0,0,1-2.008-.889,1.518,1.518,0,0,1-.428-.856v-.033a1.784,1.784,0,0,1,1.514-2.008,2.416,2.416,0,0,1,2.205.856c0,.033.033.033.033.066l.889,1.185c.066.132.132.165.23.132l.3-.1c.132-.066.2-.132.2-.23l-.395-1.81c-.033-.165-.066-.3-.461-.461a4.871,4.871,0,0,0-2.4-.559,3.428,3.428,0,0,0-3.62,3.16c0,2.041,1.547,2.863,3.061,3.291,1.942.559,2.534,1.218,2.534,2.4a1.905,1.905,0,0,1-2.041,1.777c-1.382,0-1.744-.658-2.271-1.613l-.658-1.284c-.066-.132-.132-.2-.23-.165l-.329.066c-.1.033-.2.066-.165.2l.428,2.5c.033.132.033.3.165.362a4.869,4.869,0,0,0,2.633.757c2.205,0,3.916-1.316,3.949-3.423C363.829,68.623,362.611,67.866,360.735,67.306Z" transform="translate(-319.958 -62.566)" fill="#fff"/><path d="M395.368,67.306a4.714,4.714,0,0,1-2.008-.889,1.518,1.518,0,0,1-.428-.856v-.033a1.784,1.784,0,0,1,1.514-2.008,2.416,2.416,0,0,1,2.205.856c0,.033.033.033.033.066l.889,1.185c.066.132.132.165.23.132l.3-.1c.132-.066.2-.132.2-.23l-.395-1.81c-.033-.165-.066-.3-.461-.461a4.871,4.871,0,0,0-2.4-.559,3.428,3.428,0,0,0-3.62,3.16c0,2.041,1.547,2.863,3.061,3.291,1.942.559,2.5,1.218,2.5,2.4a1.905,1.905,0,0,1-2.04,1.777c-1.382,0-1.744-.658-2.271-1.613l-.658-1.284c-.066-.132-.132-.2-.23-.165l-.329.066c-.1.033-.2.066-.165.2l.428,2.468c.033.132.033.3.165.362a4.869,4.869,0,0,0,2.633.757c2.205,0,3.916-1.316,3.949-3.423C398.462,68.623,397.277,67.866,395.368,67.306Z" transform="translate(-343.17 -62.566)" fill="#fff"/></g></g></svg>