<svg xmlns="http://www.w3.org/2000/svg" viewBox="0 0 316.54 66.06"><defs><style>.cls-1{fill:#0caacb;}.cls-2{fill:#0f4d91;}.cls-3{fill:#013c6a;}.cls-4{fill:#3b4645;}</style></defs><title>アセット 2</title><g id="レイヤー_2" data-name="レイヤー 2"><g id="レイヤー_1-2" data-name="レイヤー 1"><polygon class="cls-1" points="52.12 4.54 23.57 33.09 9.47 18.98 23.41 5.04 18.98 0.6 0.6 18.98 23.57 41.95 56.55 8.97 52.12 4.54"/><path class="cls-1" d="M23.57,42.56,0,19,19,0l5,5L10.07,19l13.5,13.5L52.12,3.94l5,5ZM1.2,19,23.57,41.35,56,9,52.12,5.14,23.57,33.69,8.87,19,22.81,5,19,1.2Z"/><polygon class="cls-2" points="24.05 57.24 2.14 35.44 27.67 9.53 32.14 13.92 10.97 35.39 24.05 48.37 60.12 12.33 64.55 16.76 24.05 57.24"/><path class="cls-2" d="M60.12,11.73l-36.07,36L11.57,35.39,32.74,13.92l-5.08-5L1.54,35.44l22.51,22.4L65.16,16.76ZM24.05,56.64,2.74,35.43l24.93-25.3,3.87,3.8L10.37,35.4,24.05,49l36.07-36L64,16.76Z"/><polygon class="cls-3" points="31.38 65.46 26.9 61.06 53.58 34.05 58.05 38.45 31.38 65.46"/><path class="cls-3" d="M53.57,33.45,26.3,61.06l5.08,5L58.65,38.45ZM31.37,64.86l-3.86-3.8L53.58,34.65l3.86,3.81Z"/><path class="cls-4" d="M87.42,39.6c.12,3.88.12,3.88-4.19,4.09H68.39v8H86.61c4.43,0,6.79-.6,8.28-2.06s2-3.67,2-7.72V14.39H87.41Z"/><rect class="cls-4" x="104.73" y="14.39" width="9.37" height="37.27"/><path class="cls-4" d="M139.54,39.6c.13,3.88.13,3.88-4.18,4.09H120.51v8h18.23c4.43,0,6.78-.6,8.27-2.06s2-3.67,2-7.72V14.39h-9.51Z"/><rect class="cls-4" x="156.85" y="14.39" width="9.37" height="37.27"/><rect class="cls-4" x="177.5" y="42.14" width="9.93" height="9.43"/><path class="cls-4" d="M205.76,40V27.57c0-4.38.81-5.17,5.15-5.25h19.34V14.39H209.52c-5.73,0-7.61.55-10.05,2.69-2.06,1.83-3,4.33-3.08,8.37V42.08c.19,7.3,3,9.54,12,9.58h21.93v-8H210.92C206.26,43.64,205.84,43.05,205.76,40Z"/><path class="cls-4" d="M258.73,14.39H247.59c-8.84,0-12.4,3.4-12.69,12.12v14c0,3.5.79,6.42,2.15,8,1.54,1.85,4.75,3.14,7.79,3.14h15.94c7.44-.18,10.57-3.43,10.81-11.22V26.37C271.54,17.71,268.18,14.57,258.73,14.39ZM262,27.92V38.61c0,4.52-.5,5-4.88,5.08h-8.78c-1.92,0-2.82-.22-3.31-.73s-.7-1.68-.6-4.12V28.11c.09-4.86.81-5.67,5.11-5.79H257c2,0,3.19.34,3.95,1.09S262.08,25.62,262,27.92Z"/><polygon class="cls-4" points="302.7 14.39 296.89 36.69 290.16 14.39 277.08 14.39 277.08 51.66 286.03 51.66 286.03 30.38 292.15 51.66 301.56 51.66 307.49 30.02 307.49 51.66 316.54 51.66 316.54 14.39 302.7 14.39"/></g></g></svg>